<svg data-v-48f9e88b="" version="1.0" xmlns="http://www.w3.org/2000/svg" xmlns:xlink="http://www.w3.org/1999/xlink" width="100%" height="100%" viewBox="0 0 340.000000 250.000000" preserveAspectRatio="xMidYMid meet" color-interpolation-filters="sRGB" style="margin: auto;"><rect data-v-48f9e88b="" x="0" y="0" width="100%" height="100%" fill="#fff" fill-opacity="0" class="background __web-inspector-hide-shortcut__"></rect> <rect data-v-48f9e88b="" x="0" y="0" width="100%" height="100%" fill="url(#watermark)" fill-opacity="1" class="watermarklayer __web-inspector-hide-shortcut__"></rect> <g data-v-48f9e88b="" fill="#0087cd" class="icon-text-wrapper icon-svg-group iconsvg" transform="translate(47.34162139892578,91.58758926391602)"><g class="iconsvg-imagesvg" transform="matrix(1,0,0,1,0,0)" opacity="1"><g><rect fill="#0087cd" fill-opacity="0" stroke-width="2" x="0" y="0" width="59.99999999999999" height="66.82481873767917" class="image-rect"></rect> <svg x="0" y="0" width="59.99999999999999" height="66.82481873767917" filtersec="colorsb2793021867" class="image-svg-svg primary"><svg viewBox="0 0 269.86700439453125 300.56500244140625" xmlns="http://www.w3.org/2000/svg"><path fill="none" pointer-events="none" d="M0 0h269.867v300.565H0z"></path><path d="M135.93 3.49L8.53 92.29l127.4 88.9z" class="st0" fill="#00aeef"></path><path d="M8.53 92.29v199.7l127.4-110.8z" class="st1" fill="#0087cd"></path><path d="M263.23 291.99V92.29l-127.3 88.9zm0-199.7l-127.3-88.8z" class="st0" fill="#00aeef"></path><path d="M263.23 92.29l-127.3-88.8v177.7z" class="st2" fill="#74d1f6"></path></svg></svg> <!----></g></g> <g transform="translate(67,17.22449493408203)"><g data-gra="path-name" fill-rule="" class="tp-name iconsvg-namesvg" transform="matrix(1,0,0,1,0,0)" opacity="1"><g transform="scale(1)"><g><path d="M6.92-8.28L7.80-8.28L7.80-12.19L6.66-12.19L6.66-8.59Q6.75-8.31 6.92-8.28L6.92-8.28ZM2.68-3.60L2.68-1.27L7.80-1.27L7.80-3.60L2.68-3.60ZM3.76-10.33L3.76-12.19L2.68-12.19L2.68-6.81Q3.76-8.11 3.76-10.33L3.76-10.33ZM5.71-16.46L4.68-16.46L4.68-13.58L5.71-13.58L5.71-16.46ZM7.80-7.32L6.86-7.32Q6.00-7.32 5.82-7.76L5.82-7.76Q5.71-8.04 5.71-8.57L5.71-8.57L5.71-12.19L4.68-12.19L4.68-10.33Q4.66-7.54 3.21-5.98L3.21-5.98Q2.92-6.33 2.68-6.48L2.68-6.48L2.68-4.86L7.80-4.86L7.80-7.32ZM9.40-16.46L6.88-16.46L6.88-13.58L9.07-13.58L9.07 1.30L7.80 1.30L7.80 0.04L2.68 0.04L2.68 1.63L1.45 1.63L1.45-13.58L3.56-13.58L3.56-16.46L1.03-16.46L1.03-17.82L9.40-17.82L9.40-16.46ZM10.48-12.48L10.48-12.48L11.54-12.19Q11.25-7.95 10.24-6.22L10.24-6.22L9.32-6.94Q10.31-8.61 10.48-12.48ZM11.89-9.43L11.89-9.43L11.89-18.37L13.27-18.37L13.27-9.43Q13.27-4.28 12.35-1.52L12.35-1.52Q11.71 0.35 10.61 1.80L10.61 1.80Q10.02 1.21 9.40 0.88L9.40 0.88Q11.51-1.80 11.82-6.61L11.82-6.61Q11.89-7.82 11.89-9.43ZM13.32-11.84L13.32-11.84L14.33-12.26Q15.25-9.69 15.49-7.29L15.49-7.29L14.37-6.81Q14.17-9.27 13.32-11.84ZM19.27-8.24L19.27-18.41L20.70-18.41L20.70 1.71L19.27 1.71L19.27-7.34L18.33-6.90Q18.02-8.83 16.88-11.62L16.88-11.62L16.88 1.25L15.51 1.25L15.51-18.02L16.88-18.02L16.88-12.06L17.75-12.46Q18.70-10.44 19.27-8.24L19.27-8.24ZM25.80-10.85L25.80-8.59L28.37-8.59L28.37-10.85L25.80-10.85ZM32.59-8.59L32.59-10.85L29.93-10.85L29.93-8.59L32.59-8.59ZM30.96-15.75L27.42-15.75L27.42-14.22L30.96-14.22L30.96-15.75ZM38.94-13.56L43.73-13.56L43.73-12.77Q43.46-2.59 43.00-0.46L43.00-0.46Q42.82 0.37 42.56 0.73L42.56 0.73Q42.08 1.43 41.20 1.54L41.20 1.54Q41.15 1.54 41.11 1.54L41.11 1.54Q40.10 1.65 38.50 1.54L38.50 1.54Q38.39 0.55 38.03-0.02L38.03-0.02Q39.07 0.09 40.41 0.09L40.41 0.09Q40.94 0.07 41.15-0.26L41.15-0.26Q41.75-0.99 41.99-7.05L41.99-7.05Q42.06-9.07 42.12-12.02L42.12-12.02L38.85-12.02Q38.58-5.34 37.02-1.91L37.02-1.91Q35.99 0.33 34.30 1.80L34.30 1.80Q33.88 1.21 33.13 0.68L33.13 0.68Q33.09 0.66 33.07 0.64L33.07 0.64Q33.16 0.57 33.35 0.40L33.35 0.40Q33.53 0.22 33.62 0.15L33.62 0.15Q31.29 0.33 26.83 0.73L26.83 0.73Q24.57 0.92 23.62 1.01L23.62 1.01L23.44-0.44Q24.24-0.48 26.19-0.64L26.19-0.64Q27.62-0.75 28.37-0.79L28.37-0.79L28.37-2.50L24.43-2.50L24.43-3.67L28.37-3.67L28.37-5.03L24.08-5.03L24.08-6.24L28.37-6.24L28.37-7.40L24.37-7.40L24.37-12.02L28.37-12.02L28.37-13.10L25.91-13.10L25.91-15.75L23.55-15.75L23.55-17.01L25.91-17.01L25.91-18.81L27.42-18.81L27.42-17.01L30.96-17.01L30.96-18.81L32.54-18.81L32.54-17.01L34.83-17.01L34.83-15.75L32.54-15.75L32.54-13.10L29.93-13.10L29.93-12.02L34.08-12.02L34.08-7.40L29.93-7.40L29.93-6.24L34.45-6.24L34.45-5.03L29.93-5.03L29.93-3.67L33.97-3.67L33.97-2.50L29.93-2.50L29.93-0.92Q33.02-1.16 34.39-1.27L34.39-1.27L34.39-0.68Q36.65-3.54 37.18-9.36L37.18-9.36Q37.29-10.57 37.33-12.02L37.33-12.02L34.52-12.02L34.52-13.56L37.38-13.56Q37.42-15.18 37.42-18.63L37.42-18.63L38.98-18.63Q38.98-16.79 38.94-13.56L38.94-13.56ZM54.87-18.39L54.87-18.39L56.32-17.78Q55.06-15.82 54.32-14.88L54.32-14.88L53.20-15.40Q54.32-17.01 54.87-18.39ZM49.66-15.40L49.66-15.40L48.34-14.83Q47.99-16.17 46.93-17.78L46.93-17.78L48.19-18.30Q49.28-16.74 49.66-15.40ZM63.44-13.14L59.50-13.14L59.48-13.07Q60.14-9.03 61.46-5.95L61.46-5.95Q62.82-8.79 63.44-13.14L63.44-13.14ZM53.37-5.52L53.37-5.52L50.23-5.52Q50.08-5.19 49.75-4.57L49.75-4.57Q49.42-3.98 49.28-3.69L49.28-3.69Q50.21-3.34 51.94-2.50L51.94-2.50Q52.93-3.71 53.37-5.52ZM66.51-14.72L66.51-13.14L65.17-13.14Q64.27-7.49 62.38-4.11L62.38-4.11Q64.16-1.05 66.71 0.29L66.71 0.29Q66.05 0.83 65.59 1.65L65.59 1.65Q65.57 1.69 65.57 1.71L65.57 1.71Q63.06 0.24 61.35-2.55L61.35-2.55Q59.30 0.15 56.14 1.78L56.14 1.78Q55.88 1.23 55.42 0.62L55.42 0.62L54.91 1.14Q53.92 0.35 52.27-0.64L52.27-0.64Q50.36 0.92 46.78 1.71L46.78 1.71Q46.56 0.90 46.01 0.33L46.01 0.33Q49.13-0.20 50.80-1.43L50.80-1.43Q49.04-2.29 48.60-2.46L48.60-2.46L48.23-1.82L46.80-2.33Q47.11-2.86 48.52-5.52L48.52-5.52L45.97-5.52L45.97-6.90L49.20-6.90Q50.03-8.61 50.12-8.83L50.12-8.83L50.71-8.70L50.71-11.82Q48.85-9.65 46.78-8.50L46.78-8.50Q46.36-9.27 45.86-9.76L45.86-9.76Q48.10-10.77 49.83-12.79L49.83-12.79Q50.08-13.07 50.27-13.34L50.27-13.34L46.10-13.34L46.10-14.72L50.71-14.72L50.71-18.83L52.27-18.83L52.27-14.72L56.84-14.72L56.84-13.34L52.27-13.34L52.27-13.23Q54.71-11.78 56.27-10.68L56.27-10.68L55.35-9.49Q54.65-10.13 52.27-11.93L52.27-11.93L52.27-8.57L51.31-8.57L51.68-8.48Q51.55-8.22 51.30-7.69Q51.04-7.16 50.91-6.90L50.91-6.90L56.93-6.90L56.93-5.52L54.98-5.52Q54.51-3.25 53.37-1.76L53.37-1.76Q54.91-0.90 55.96-0.11L55.96-0.11Q58.82-1.69 60.45-4.20L60.45-4.20Q59.28-6.66 58.43-10.42L58.43-10.42Q57.66-8.72 56.80-7.60L56.80-7.60Q56.47-8.02 55.44-8.75L55.44-8.75Q58.05-12.04 59.11-18.83L59.11-18.83L60.82-18.59Q60.56-16.98 59.99-14.72L59.99-14.72L66.51-14.72ZM75.21-9.05L75.43-7.51L72.88-6.68L72.88-0.35Q72.88 0.79 72.29 1.16L72.29 1.16Q72.20 1.21 72.11 1.25L72.11 1.25Q71.37 1.60 69.32 1.58L69.32 1.58Q69.19 0.88 68.82 0.02L68.82 0.02Q69.79 0.04 70.95 0.04L70.95 0.04Q71.30-0.04 71.32-0.37L71.32-0.37L71.32-6.17Q69.74-5.67 68.66-5.34L68.66-5.34L68.27-6.92Q68.60-7.01 69.37-7.25L69.37-7.25Q70.64-7.62 71.32-7.82L71.32-7.82L71.32-12.77L68.53-12.77L68.53-14.30L71.32-14.30L71.32-18.81L72.88-18.81L72.88-14.30L75.41-14.30L75.41-12.77L72.88-12.77L72.88-8.31L75.21-9.05ZM78.00-9.58L78.00-9.58L82.38-9.58L82.38-12.06L78.02-12.06L78.02-11.10Q78.02-10.13 78.00-9.58ZM86.59-13.51L86.59-16.37L78.02-16.37L78.02-13.51L86.59-13.51ZM79.85-0.57L86.77-0.57L86.77-3.96L79.85-3.96L79.85-0.57ZM88.97-9.58L88.97-8.15L83.98-8.15L83.98-5.38L88.29-5.38L88.29 1.67L86.77 1.67L86.77 0.83L79.85 0.83L79.85 1.76L78.40 1.76L78.40-5.38L82.38-5.38L82.38-8.15L77.94-8.15Q77.54-1.67 75.23 1.74L75.23 1.74Q74.79 1.23 73.98 0.83L73.98 0.83Q73.94 0.81 73.89 0.79L73.89 0.79Q76.31-2.83 76.42-10.15L76.42-10.15Q76.42-10.59 76.42-11.10L76.42-11.10L76.42-17.84L88.20-17.84L88.20-12.06L83.98-12.06L83.98-9.58L88.97-9.58ZM98.64-17.53L109.89-17.53L109.89-15.97L98.64-15.97L98.64-17.53ZM97.62-2.81L97.38-4.46L99.36-4.59Q100.66-7.38 101.67-10.72L101.67-10.72L97.23-10.72L97.23-12.30L111.53-12.30L111.53-10.72L103.65-10.72Q102.11-6.83 101.07-4.72L101.07-4.72Q101.95-4.79 103.82-4.94L103.82-4.94Q106.79-5.21 108.30-5.32L108.30-5.32Q107.12-7.19 105.80-8.75L105.80-8.75L107.14-9.43Q109.69-6.42 111.05-3.63L111.05-3.63Q111.27-3.19 111.42-2.81L111.42-2.81L109.97-2.02Q109.73-2.70 109.12-3.85L109.12-3.85Q102.11-3.19 97.62-2.81L97.62-2.81ZM96.90-15.86L96.90-15.86L95.73-14.72Q94.72-15.95 92.46-17.29L92.46-17.29Q92.26-17.42 92.09-17.51L92.09-17.51L93.19-18.54Q95.65-17.23 96.81-15.97L96.81-15.97Q96.86-15.91 96.90-15.86ZM96.26-11.47L96.26-11.47L95.10-10.28Q93.91-11.54 91.60-12.77L91.60-12.77Q91.38-12.88 91.21-12.96L91.21-12.96L92.31-14.04Q94.57-13.01 96.02-11.69L96.02-11.69Q96.17-11.56 96.26-11.47ZM91.12-8.44L95.69-8.44L95.69-2.81Q97.25-0.44 101.36-0.26L101.36-0.26Q106.50-0.13 111.23-0.40L111.23-0.40Q111.45-0.40 111.62-0.42L111.62-0.42Q111.20 0.29 111.05 1.23L111.05 1.23Q105.86 1.41 101.38 1.30L101.38 1.30Q97.19 1.10 95.16-1.14L95.16-1.14Q95.05-1.25 94.97-1.36L94.97-1.36Q93.80-0.24 91.71 1.52L91.71 1.52L90.83-0.13Q92.40-1.21 94.06-2.70L94.06-2.70L94.06-6.88L91.12-6.88L91.12-8.44ZM130.32-15.62L130.32-15.62L128.83-14.94Q128.45-16.26 127.33-18.13L127.33-18.13L128.72-18.70Q129.88-16.96 130.32-15.62ZM116.39-6.31L116.39-6.31L120.76-7.08Q120.70-6.42 120.74-5.69L120.74-5.69Q114.87-4.50 114.17-4.15L114.17-4.15Q114.13-4.13 114.10-4.11L114.10-4.11Q113.95-4.83 113.60-5.58L113.60-5.58Q114.10-5.67 115.18-6.94L115.18-6.94Q115.25-7.01 115.29-7.08L115.29-7.08Q116.08-7.93 117.55-10.15L117.55-10.15Q114.43-9.73 113.95-9.49L113.95-9.49Q113.86-9.91 113.44-11.03L113.44-11.03Q113.86-11.16 114.65-12.41L114.65-12.41Q115.58-13.78 116.74-16.57L116.74-16.57Q117.22-17.75 117.55-18.79L117.55-18.79L119.09-18.11Q117.55-14.30 115.53-11.25L115.53-11.25L118.43-11.56Q119.29-12.90 119.93-14.17L119.93-14.17L121.27-13.38Q118.92-9.29 116.39-6.31ZM113.88 0.33L113.88 0.33L113.58-1.25Q114.28-1.38 121.14-2.94L121.14-2.94L121.29-1.58Q119.90-1.21 117.14-0.51L117.14-0.51Q114.83 0.07 113.88 0.33ZM128.14-4.50L124.54-4.50L124.54-1.45L128.14-1.45L128.14-4.50ZM124.54-10.42L128.14-10.42L128.14-13.25L124.54-13.25L124.54-10.42ZM124.54-6.00L128.14-6.00L128.14-8.88L124.54-8.88L124.54-6.00ZM129.70-1.45L133.95-1.45L133.95 0.11L124.54 0.11L124.54 1.76L122.96 1.76L122.96-11.29Q121.86-9.76 121.46-9.34L121.46-9.34Q121.18-10.11 120.63-10.81L120.63-10.81Q122.81-13.32 124.34-17.40L124.34-17.40Q124.58-18.08 124.78-18.70L124.78-18.70L126.39-18.24Q125.86-16.68 124.94-14.79L124.94-14.79L133.64-14.79L133.64-13.25L129.70-13.25L129.70-10.42L133.07-10.42L133.07-8.88L129.70-8.88L129.70-6.00L133.11-6.00L133.11-4.50L129.70-4.50L129.70-1.45ZM147.06-7.80L156.29-7.80L156.29-6.17L147.06-6.17L147.06 1.71L145.35 1.71L145.35-6.17L136.25-6.17L136.25-7.80L145.35-7.80L145.35-15.67L137.44-15.67L137.44-17.29L155.02-17.29L155.02-15.67L147.06-15.67L147.06-7.80ZM139.00-14.11L139.00-14.11L140.47-14.57Q142.14-11.62 142.60-9.49L142.60-9.49L141.02-8.96Q140.49-11.25 139.00-14.11ZM150.93-8.88L150.93-8.88L149.50-9.36Q150.86-11.62 151.94-14.68L151.94-14.68L153.70-14.17Q152.14-10.72 150.93-8.88ZM174.11-0.88L174.11-6.24L163.32-6.24L163.32-0.88L174.11-0.88ZM163.32 1.71L161.63 1.71L161.63-7.80L175.89-7.80L175.89 1.67L174.11 1.67L174.11 0.73L163.32 0.73L163.32 1.71ZM171.50-15.29L171.50-15.29L172.79-16.24Q176.00-13.69 178.02-11.16L178.02-11.16Q178.55-10.50 178.88-9.98L178.88-9.98L177.43-8.85Q176.86-9.80 175.85-11.03L175.85-11.03Q172.90-10.88 159.13-10.28L159.13-10.28L159.02-11.95Q159.81-11.98 162.38-12.06L162.38-12.06Q164.71-15.60 166.11-18.90L166.11-18.90L167.96-18.26Q166.29-15.03 164.31-12.15L164.31-12.15Q167.65-12.26 174.42-12.57L174.42-12.57Q172.95-14.08 171.50-15.29Z" transform="translate(-1.03271484375, 18.896484375)"></path></g> <!----> <!----> <!----> <!----> <!----> <!----> <!----></g></g> <g data-gra="path-slogan" fill-rule="" class="tp-slogan iconsvg-slogansvg" fill="#0087cd" transform="matrix(1,0,0,1,-0.470001220703125,26.69999885559082)" opacity="0.8072803025208586"><rect width="0"></rect> <rect x="181.79000854492188" width="0"></rect> <g transform="translate(0,0)"><g transform="scale(1)"><path d="M2.88-4.84L1.40-4.84L1.40-2.94L2.85-2.94Q3.98-2.94 3.98-3.92L3.98-3.92Q3.98-4.81 2.88-4.84L2.88-4.84ZM3.12-2.29L1.40-2.29L1.40 0L0.65 0L0.65-5.43L3.12-5.43Q4.66-5.37 4.72-3.92L4.72-3.92Q4.63-2.35 3.12-2.29L3.12-2.29ZM9.20 0L8.67-1.57L6.47-1.57L5.91 0L5.17 0L7.22-5.43L8.05-5.43L10.01 0L9.20 0ZM7.57-4.63L6.71-2.23L8.40-2.23L7.60-4.63L7.57-4.63ZM15.05-5.43L13.01-2.20L13.01 0L12.26 0L12.26-2.20L10.21-5.43L11.08-5.43L12.62-2.82L14.19-5.43L15.05-5.43ZM20.04 0L17.85 0L17.85-5.43L20.07-5.43Q22.27-5.32 22.36-2.79L22.36-2.79Q22.24-0.06 20.04 0L20.04 0ZM19.95-4.84L18.59-4.84L18.59-0.62L20.01-0.62Q21.56-0.71 21.62-2.73L21.62-2.73Q21.59-4.78 19.95-4.84L19.95-4.84ZM26.87 0L26.34-1.57L24.14-1.57L23.58 0L22.83 0L24.88-5.43L25.71-5.43L27.67 0L26.87 0ZM25.24-4.63L24.38-2.23L26.07-2.23L25.27-4.63L25.24-4.63ZM29.72-4.81L27.88-4.81L27.88-5.43L32.28-5.43L32.28-4.81L30.44-4.81L30.44 0L29.72 0L29.72-4.81ZM36.52 0L35.99-1.57L33.79-1.57L33.23 0L32.48 0L34.53-5.43L35.36-5.43L37.32 0L36.52 0ZM34.89-4.63L34.03-2.23L35.72-2.23L34.92-4.63L34.89-4.63ZM44.39-2.70L44.39-2.70Q44.27-4.84 42.49-4.96L42.49-4.96Q40.68-4.87 40.59-2.70L40.59-2.70Q40.68-0.59 42.49-0.50L42.49-0.50Q44.27-0.62 44.39-2.70ZM45.13-2.70L45.13-2.70Q44.96 0 42.49 0.09L42.49 0.09Q40.00 0 39.82-2.70L39.82-2.70Q39.97-5.52 42.49-5.58L42.49-5.58Q44.96-5.49 45.13-2.70ZM48.31-4.84L46.83-4.84L46.83-2.94L48.28-2.94Q49.41-2.94 49.41-3.92L49.41-3.92Q49.41-4.81 48.31-4.84L48.31-4.84ZM48.55-2.29L46.83-2.29L46.83 0L46.08 0L46.08-5.43L48.55-5.43Q50.09-5.37 50.15-3.92L50.15-3.92Q50.06-2.35 48.55-2.29L48.55-2.29ZM51.87-0.65L55.14-0.65L55.14 0L51.13 0L51.13-5.43L55.08-5.43L55.08-4.81L51.87-4.81L51.87-3.12L54.84-3.12L54.84-2.46L51.87-2.46L51.87-0.65ZM58.70-2.35L56.92-2.35L56.92 0L56.18 0L56.18-5.43L58.70-5.43Q60.51-5.43 60.51-3.98L60.51-3.98Q60.51-3.09 59.74-2.67L59.74-2.67Q60.40-2.49 60.40-1.63L60.40-1.63L60.46-0.65Q60.43-0.24 60.72-0.12L60.72-0.12L60.72 0L59.80 0Q59.71-0.39 59.68-1.37L59.68-1.37Q59.71-2.35 58.70-2.35L58.70-2.35ZM58.76-4.84L56.92-4.84L56.92-2.97L58.64-2.97Q59.74-2.97 59.74-3.92L59.74-3.92Q59.74-4.84 58.76-4.84L58.76-4.84ZM65.15 0L64.61-1.57L62.42-1.57L61.85 0L61.11 0L63.16-5.43L63.99-5.43L65.95 0L65.15 0ZM63.51-4.63L62.65-2.23L64.35-2.23L63.54-4.63L63.51-4.63ZM68.00-4.81L66.16-4.81L66.16-5.43L70.55-5.43L70.55-4.81L68.71-4.81L68.71 0L68.00 0L68.00-4.81ZM71.32-5.43L72.07-5.43L72.07 0L71.32 0L71.32-5.43ZM77.62-2.70L77.62-2.70Q77.50-4.84 75.72-4.96L75.72-4.96Q73.91-4.87 73.82-2.70L73.82-2.70Q73.91-0.59 75.72-0.50L75.72-0.50Q77.50-0.62 77.62-2.70ZM78.36-2.70L78.36-2.70Q78.18 0 75.72 0.09L75.72 0.09Q73.22 0 73.05-2.70L73.05-2.70Q73.19-5.52 75.72-5.58L75.72-5.58Q78.18-5.49 78.36-2.70ZM80.11-5.43L82.84-1.04L82.84-5.43L83.56-5.43L83.56 0L82.73 0L79.96-4.39L79.93-4.39L79.93 0L79.22 0L79.22-5.43L80.11-5.43ZM90.39 0L89.85-1.57L87.65-1.57L87.09 0L86.35 0L88.40-5.43L89.23-5.43L91.19 0L90.39 0ZM88.75-4.63L87.89-2.23L89.58-2.23L88.78-4.63L88.75-4.63ZM92.73-5.43L95.46-1.04L95.46-5.43L96.18-5.43L96.18 0L95.34 0L92.58-4.39L92.55-4.39L92.55 0L91.84 0L91.84-5.43L92.73-5.43ZM99.53 0L97.33 0L97.33-5.43L99.56-5.43Q101.76-5.32 101.85-2.79L101.85-2.79Q101.73-0.06 99.53 0L99.53 0ZM99.44-4.84L98.08-4.84L98.08-0.62L99.50-0.62Q101.05-0.71 101.11-2.73L101.11-2.73Q101.08-4.78 99.44-4.84L99.44-4.84ZM110.10-5.43L110.10 0L109.39 0L109.39-3.21Q109.39-3.65 109.39-4.57L109.39-4.57L107.85 0L107.10 0L105.59-4.57L105.56-4.57Q105.56-4.25 105.59-3.59L105.59-3.59Q105.59-3.27 105.59-3.21L105.59-3.21L105.59 0L104.85 0L104.85-5.43L105.92-5.43L107.49-0.83L109.03-5.43L110.10-5.43ZM114.76 0L114.23-1.57L112.03-1.57L111.47 0L110.73 0L112.77-5.43L113.61-5.43L115.57 0L114.76 0ZM113.13-4.63L112.27-2.23L113.96-2.23L113.16-4.63L113.13-4.63ZM116.34-5.43L117.08-5.43L117.08 0L116.34 0L116.34-5.43ZM119.22-5.43L121.95-1.04L121.95-5.43L122.66-5.43L122.66 0L121.83 0L119.07-4.39L119.04-4.39L119.04 0L118.33 0L118.33-5.43L119.22-5.43ZM125.19-4.81L123.35-4.81L123.35-5.43L127.74-5.43L127.74-4.81L125.90-4.81L125.90 0L125.19 0L125.19-4.81ZM129.22-0.65L132.49-0.65L132.49 0L128.48 0L128.48-5.43L132.43-5.43L132.43-4.81L129.22-4.81L129.22-3.12L132.19-3.12L132.19-2.46L129.22-2.46L129.22-0.65ZM134.33-5.43L137.06-1.04L137.06-5.43L137.78-5.43L137.78 0L136.94 0L134.18-4.39L134.15-4.39L134.15 0L133.44 0L133.44-5.43L134.33-5.43ZM142.50 0L141.96-1.57L139.77-1.57L139.20 0L138.46 0L140.51-5.43L141.34-5.43L143.30 0L142.50 0ZM140.86-4.63L140.00-2.23L141.70-2.23L140.89-4.63L140.86-4.63ZM144.84-5.43L147.58-1.04L147.58-5.43L148.29-5.43L148.29 0L147.46 0L144.69-4.39L144.67-4.39L144.67 0L143.95 0L143.95-5.43L144.84-5.43ZM153.96-3.83L153.96-3.83L153.25-3.83Q152.98-4.93 151.73-4.96L151.73-4.96Q150.01-4.87 149.95-2.76L149.95-2.76Q149.95-0.50 151.76-0.50L151.76-0.50Q153.01-0.53 153.31-2.02L153.31-2.02L154.02-2.02Q153.69 0.03 151.61 0.09L151.61 0.09Q149.24 0 149.18-2.73L149.18-2.73Q149.30-5.46 151.73-5.58L151.73-5.58Q153.66-5.52 153.96-3.83ZM155.71-0.65L158.98-0.65L158.98 0L154.97 0L154.97-5.43L158.92-5.43L158.92-4.81L155.71-4.81L155.71-3.12L158.68-3.12L158.68-2.46L155.71-2.46L155.71-0.65ZM164.35-4.84L162.87-4.84L162.87-2.94L164.32-2.94Q165.45-2.94 165.45-3.92L165.45-3.92Q165.45-4.81 164.35-4.84L164.35-4.84ZM164.59-2.29L162.87-2.29L162.87 0L162.12 0L162.12-5.43L164.59-5.43Q166.13-5.37 166.19-3.92L166.19-3.92Q166.10-2.35 164.59-2.29L164.59-2.29ZM167.20-5.43L167.94-5.43L167.94 0L167.20 0L167.20-5.43ZM170.08-5.43L172.81-1.04L172.81-5.43L173.53-5.43L173.53 0L172.70 0L169.93-4.39L169.90-4.39L169.90 0L169.19 0L169.19-5.43L170.08-5.43ZM178.72-2.29L177.06-2.29L177.06-2.91L179.44-2.91L179.44 0L178.96 0L178.78-0.68Q178.16 0.06 177.00 0.09L177.00 0.09Q175.90 0.09 175.31-0.48L175.31-0.48Q174.42-1.31 174.45-2.76L174.45-2.76Q174.66-5.46 177.03-5.58L177.03-5.58Q179.05-5.46 179.35-3.80L179.35-3.80L178.63-3.80Q178.34-4.93 177.00-4.96L177.00-4.96Q175.31-4.84 175.22-2.73L175.22-2.73Q175.22-0.48 177.03-0.48L177.03-0.48Q177.68-0.48 178.16-0.83L178.16-0.83Q178.75-1.31 178.72-2.29L178.72-2.29Z" transform="translate(-0.6532497525569119, 5.58231606730452)"></path></g></g></g></g></g><defs v-gra="od"></defs></svg>